<svg height="512pt" viewBox="0 0 512 512" width="512pt" xmlns="http://www.w3.org/2000/svg" xmlns:xlink="http://www.w3.org/1999/xlink"><linearGradient id="a" gradientUnits="userSpaceOnUse" x1="0" x2="512" y1="256" y2="256"><stop offset="0" stop-color="#00f38d"/><stop offset="1" stop-color="#009eff"/></linearGradient><path d="m512 256c0 141.386719-114.613281 256-256 256s-256-114.613281-256-256 114.613281-256 256-256 256 114.613281 256 256zm0 0" fill="url(#a)"/><g fill="#fff"><path d="m256 424.195312-58.726562-58.726562h-68.347657c-22.570312 0-40.933593-18.363281-40.933593-40.933594v-195.800781c0-22.570313 18.359374-40.933594 40.933593-40.933594h254.148438c22.570312 0 40.933593 18.363281 40.933593 40.933594v195.800781c0 22.570313-18.363281 40.933594-40.933593 40.933594h-68.347657zm-127.074219-306.390624c-6.027343 0-10.933593 4.902343-10.933593 10.933593v195.796875c0 6.027344 4.902343 10.933594 10.933593 10.933594h80.773438l46.300781 46.300781 46.300781-46.300781h80.773438c6.027343 0 10.933593-4.90625 10.933593-10.933594v-195.800781c0-6.027344-4.902343-10.933594-10.933593-10.933594h-254.148438zm0 0"/><path d="m161.34375 159.121094h189.3125v30h-189.3125zm0 0"/><path d="m161.34375 210.988281h189.3125v30h-189.3125zm0 0"/><path d="m161.34375 262.855469h127.074219v30h-127.074219zm0 0"/></g></svg>